<svg id="at" xmlns="http://www.w3.org/2000/svg" width="27.396" height="27.639" viewBox="0 0 27.396 27.639">
  <path id="Path_282" data-name="Path 282" d="M124.647,100.987a13.346,13.346,0,0,0-9.4-3.484,14.031,14.031,0,0,0-10.059,3.964,13.089,13.089,0,0,0-4.155,9.867,13.5,13.5,0,0,0,3.952,9.732q3.967,4.076,10.667,4.076a19.971,19.971,0,0,0,7.933-1.663,1.691,1.691,0,0,0,.913-2.182h0a1.686,1.686,0,0,0-2.233-.913,16.7,16.7,0,0,1-6.619,1.455q-5.142,0-7.967-3.135a10.642,10.642,0,0,1-2.819-7.352,10.475,10.475,0,0,1,3.022-7.651,10,10,0,0,1,7.414-3.067,9.845,9.845,0,0,1,6.845,2.52,8.183,8.183,0,0,1,2.791,6.343,7.151,7.151,0,0,1-1.28,4.353A3.46,3.46,0,0,1,121,115.585c-.5,0-.744-.265-.744-.8a14.837,14.837,0,0,1,.1-1.528l1.049-8.576h-3.608l-.231.84a4.682,4.682,0,0,0-3.022-1.128,5.781,5.781,0,0,0-4.46,2.075,8.736,8.736,0,0,0-.209,10.487,5.007,5.007,0,0,0,3.964,1.956,4.5,4.5,0,0,0,3.541-1.737,3.667,3.667,0,0,0,3.265,1.663,6.938,6.938,0,0,0,5.48-2.763,10.035,10.035,0,0,0,2.312-6.659A11.038,11.038,0,0,0,124.647,100.987Zm-8.311,12.974a2.8,2.8,0,0,1-2.283,1.291,1.644,1.644,0,0,1-1.455-.947,4.572,4.572,0,0,1-.558-2.357,4.653,4.653,0,0,1,.778-2.808,2.323,2.323,0,0,1,1.928-1.071,2.407,2.407,0,0,1,1.776.8,2.938,2.938,0,0,1,.778,2.137A4.88,4.88,0,0,1,116.336,113.961Z" transform="translate(-101.034 -97.503)" fill="#3432ff"/>
</svg>
