<svg xmlns="http://www.w3.org/2000/svg" width="22.863" height="22.161" viewBox="0 0 22.863 22.161">
  <g id="Group_10945" data-name="Group 10945" transform="translate(-4529.661 -140.719)">
    <path id="Path_27651" data-name="Path 27651" d="M4552.517,151.9c-.005-2.612-1.265-3.779-3.882-3.7-.56.018-.74.18-.738.739s.11.925.756.814c1.695-.291,2.4.663,2.341,2.429-.024.687-.216.9-.905.9-3-.032-6.007-.014-9.011-.013-2.971,0-5.941,0-8.912-.007-.31,0-.692.141-.913-.2a2.975,2.975,0,0,1,.735-2.9,2.589,2.589,0,0,1,1.547-.187c.593.024.725-.246.711-.773-.013-.478-.035-.774-.668-.8-2.592-.115-3.907,1.078-3.911,3.664q-.012,6.735,0,13.469c0,2.346,1.187,3.531,3.529,3.534q7.823.008,15.646,0c2.534,0,3.673-1.139,3.678-3.695Q4552.53,158.54,4552.517,151.9Zm-15.373,8.441c.352-.263.621-.595,1.021-.018.488.7,1.09,1.325,1.586,2.022.41.576.659.651,1.1-.007,1.2-1.777,2.46-3.509,3.713-5.248.131-.181.2-.582.557-.4a10,10,0,0,1,1.06.726c-.146.236-.242.408-.355.568-1.543,2.179-3.081,4.363-4.639,6.531-.578.8-1,.807-1.636.036-.881-1.068-1.709-2.182-2.616-3.227C4536.5,160.83,4536.768,160.628,4537.145,160.346Z" transform="translate(0 -5.993)" fill="#e1e1e1"/>
    <path id="Path_27652" data-name="Path 27652" d="M4568.174,149.828c1.054-.04,2.111-.011,3.167-.011,1.122,0,2.245-.027,3.365.01.673.022.621-.389.637-.836.018-.475-.09-.729-.646-.724-2.177.023-4.355.028-6.532,0-.62-.009-.681.284-.682.785S4567.562,149.852,4568.174,149.828Z" transform="translate(-30.322 -6.049)" fill="#e1e1e1"/>
    <path id="Path_27653" data-name="Path 27653" d="M4610.5,144.416a.732.732,0,0,0,.8.8.707.707,0,0,0,.731-.762c.016-.982.019-1.964,0-2.946a.709.709,0,0,0-.744-.752.736.736,0,0,0-.782.815c-.01.425,0,.851,0,1.277C4610.5,143.369,4610.485,143.893,4610.5,144.416Z" transform="translate(-64.804 -0.027)" fill="#e1e1e1"/>
    <path id="Path_27654" data-name="Path 27654" d="M4557.066,145.19a.705.705,0,0,0,.788-.717c.034-1.02.035-2.044-.011-3.063a.746.746,0,0,0-1.49.032c-.021.494,0,.989,0,1.483h-.008c0,.495-.01.989,0,1.484A.721.721,0,0,0,4557.066,145.19Z" transform="translate(-21.386)" fill="#e1e1e1"/>
  </g>
</svg>
