<svg xmlns="http://www.w3.org/2000/svg" width="22.48" height="24.203" viewBox="0 0 22.48 24.203">
  <path id="Path_27662" data-name="Path 27662" d="M175.464,84.55a5.723,5.723,0,0,0-.062-.869,3,3,0,0,0-2.741-2.432c-.63-.022-1.262-.021-1.893-.022q-5.214,0-10.427,0c-.334,0-.669,0-1,.016a2.942,2.942,0,0,0-2.447,1.441,3.042,3.042,0,0,0-.445,1.777c.008.24.035.223-.227.223-.626,0-1.252,0-1.878,0a1.306,1.306,0,1,0,0,2.611c.641-.027,1.284,0,1.926-.009.154,0,.185.049.185.192q-.005,5.845,0,11.69c0,.154-.04.2-.2.2-.685,0-1.371-.01-2.055.014a1.288,1.288,0,0,0-1.134,1.723,1.313,1.313,0,0,0,1.288.877c.648,0,1.3,0,1.943,0,.122,0,.16.036.154.157a3.432,3.432,0,0,0,.126,1.152,2.993,2.993,0,0,0,2.725,2.13c.614.022,1.23,0,1.845,0q5.626,0,11.253,0a3.123,3.123,0,0,0,.658-.06,3.017,3.017,0,0,0,2.41-3q0-4.517,0-9.035Q175.466,88.937,175.464,84.55Zm-4.826,15.65a3.932,3.932,0,0,1-1.6-.4,14.373,14.373,0,0,1-3.218-2,21.736,21.736,0,0,1-3.911-4.073,16.845,16.845,0,0,1-1.915-3.142,3.726,3.726,0,0,1-.434-1.642.852.852,0,0,1,.467-.79c.679-.365,1.345-.753,2.026-1.114a4.545,4.545,0,0,1,.66-.232l.017.043a1.27,1.27,0,0,1,.89.363c.477.47.953.939,1.42,1.419a1.287,1.287,0,0,1,.032,1.75c-.194.217-.406.417-.613.622a.433.433,0,0,0-.01.7q1.784,1.786,3.572,3.569a.427.427,0,0,0,.69,0c.188-.185.374-.374.562-.56a1.3,1.3,0,0,1,1.847,0q.684.678,1.362,1.362a1.269,1.269,0,0,1,.241,1.533q-.6,1.111-1.225,2.2A.914.914,0,0,1,170.637,100.2Z" transform="translate(-152.987 -81.225)" fill="#e1e1e1"/>
</svg>
