<svg xmlns="http://www.w3.org/2000/svg" width="23.895" height="23.697" viewBox="0 0 23.895 23.697">
  <path id="Path_27655" data-name="Path 27655" d="M4836.318,221.91a4.887,4.887,0,0,0-1.935-3.945c-.295-.239-.576-.5-.888-.713a.887.887,0,0,1-.4-.832c.02-1.088.018-2.178,0-3.266a.976.976,0,1,0-1.95.017c-.012.631,0,1.262,0,2.115-1.139-.923-2.122-1.7-3.089-2.505-2.526-2.091-4.845-2.078-7.375.021-2.084,1.729-4.187,3.436-6.287,5.145a4.9,4.9,0,0,0-1.947,3.94c-.007,2.684-.026,5.368,0,8.052a4.9,4.9,0,0,0,4.971,4.965q1.375.009,2.748.013a1.779,1.779,0,0,1-.008-.19c.021-3.156-.034-6.312.032-9.467a4.19,4.19,0,0,1,8.378-.027c.064,1.556.012,3.118.012,4.677h.009c0,1.6-.015,3.193.008,4.789a2.007,2.007,0,0,1-.009.217q1.363,0,2.726-.012a4.912,4.912,0,0,0,5-5.02C4836.339,227.227,4836.323,224.568,4836.318,221.91Z" transform="translate(-4812.433 -211.22)" fill="#fff"/>
</svg>
