<svg id="loaction" xmlns="http://www.w3.org/2000/svg" width="23.853" height="32.415" viewBox="0 0 23.853 32.415">
  <g id="Group_522" data-name="Group 522" transform="translate(0)">
    <path id="Path_283" data-name="Path 283" d="M188.136,81.794c-.633-.914-1.243-1.794-1.853-2.676-2.507-3.626-5-7.262-7.528-10.874a14.131,14.131,0,0,1-1.894-3.338,11.575,11.575,0,0,1,4.253-13.285,12.1,12.1,0,0,1,15.811,1.545,11.048,11.048,0,0,1,3.094,6.929,11.371,11.371,0,0,1-2.313,7.912c-1.684,2.281-3.244,4.653-4.858,6.985L188.3,81.57C188.256,81.63,188.212,81.689,188.136,81.794ZM194.7,61.136a6.152,6.152,0,0,0-.438-2.318,6.622,6.622,0,0,0-9.064-3.43,6.29,6.29,0,0,0-2.366,9.463,6.37,6.37,0,0,0,6.543,2.536A6.464,6.464,0,0,0,194.7,61.136Z" transform="translate(-176.207 -49.379)" fill="#3432ff"/>
  </g>
</svg>
