<?xml version="1.0" standalone="no"?>
<!DOCTYPE svg PUBLIC "-//W3C//DTD SVG 20010904//EN"
 "http://www.w3.org/TR/2001/REC-SVG-20010904/DTD/svg10.dtd">
<svg version="1.0" xmlns="http://www.w3.org/2000/svg"
 width="499.000000pt" height="293.000000pt" viewBox="0 0 499.000000 293.000000"
 preserveAspectRatio="xMidYMid meet">

<g transform="translate(0.000000,293.000000) scale(0.100000,-0.100000)"
fill="#000000" stroke="none">
<path d="M2425 2890 c3 -5 8 -10 11 -10 2 0 4 5 4 10 0 6 -5 10 -11 10 -5 0
-7 -4 -4 -10z"/>
<path d="M2460 2889 c0 -5 5 -7 10 -4 6 3 10 8 10 11 0 2 -4 4 -10 4 -5 0 -10
-5 -10 -11z"/>
<path d="M2260 2559 c-478 -49 -925 -254 -1249 -572 -244 -240 -403 -521 -470
-830 -12 -53 -21 -99 -21 -102 0 -3 -7 -5 -15 -5 -13 0 -15 -59 -15 -470 l0
-470 2000 0 2000 0 0 505 0 504 -32 9 c-27 7 -34 14 -40 48 -17 81 -71 232
-121 334 -266 546 -828 936 -1492 1035 -134 20 -416 27 -545 14z m103 -316
c-13 -2 -35 -2 -50 0 -16 2 -5 4 22 4 28 0 40 -2 28 -4z m290 0 c-13 -2 -35
-2 -50 0 -16 2 -5 4 22 4 28 0 40 -2 28 -4z m-410 -10 c-7 -2 -21 -2 -30 0
-10 3 -4 5 12 5 17 0 24 -2 18 -5z m505 0 c-10 -2 -26 -2 -35 0 -10 3 -2 5 17
5 19 0 27 -2 18 -5z m-575 -10 c-7 -2 -19 -2 -25 0 -7 3 -2 5 12 5 14 0 19 -2
13 -5z m640 0 c-7 -2 -19 -2 -25 0 -7 3 -2 5 12 5 14 0 19 -2 13 -5z m-700
-10 c-7 -2 -19 -2 -25 0 -7 3 -2 5 12 5 14 0 19 -2 13 -5z m760 0 c-7 -2 -19
-2 -25 0 -7 3 -2 5 12 5 14 0 19 -2 13 -5z m-806 -9 c-3 -3 -12 -4 -19 -1 -8
3 -5 6 6 6 11 1 17 -2 13 -5z m863 -3 c0 -5 8 -8 18 -6 9 1 11 0 5 -2 -7 -3
-13 -13 -13 -24 0 -25 -27 -36 -51 -20 -12 7 -19 7 -19 1 0 -13 -47 -13 -55 0
-19 31 25 66 51 40 8 -8 15 -6 24 5 14 16 40 21 40 6z m-1246 -49 c-13 -20
-25 -20 -38 1 -7 10 -5 21 4 32 12 15 15 15 29 0 12 -12 13 -19 5 -33z m333
42 c-3 -3 -12 -4 -19 -1 -8 3 -5 6 6 6 11 1 17 -2 13 -5z m182 -8 c13 -15 5
-46 -12 -46 -5 0 -3 -8 6 -18 10 -11 17 -36 17 -60 l0 -42 85 0 c76 0 85 2 85
19 0 15 -10 19 -55 23 -64 5 -85 20 -69 46 9 13 26 17 79 17 61 0 69 -2 91
-28 27 -31 34 -103 12 -125 -8 -8 -65 -12 -189 -12 l-177 0 -11 -29 c-26 -60
-141 -73 -141 -15 0 21 4 24 40 24 22 0 40 5 40 10 0 6 -13 10 -30 10 -44 0
-70 31 -70 84 0 36 5 48 26 65 60 47 144 6 144 -69 0 -16 7 -20 35 -20 35 0
35 0 35 44 0 27 6 48 16 57 14 11 14 13 0 21 -19 11 -21 29 -4 46 16 16 33 15
47 -2z m-222 -2 c-3 -3 -12 -4 -19 -1 -8 3 -5 6 6 6 11 1 17 -2 13 -5z m1030
0 c-3 -3 -12 -4 -19 -1 -8 3 -5 6 6 6 11 1 17 -2 13 -5z m40 -10 c-3 -3 -12
-4 -19 -1 -8 3 -5 6 6 6 11 1 17 -2 13 -5z m136 -38 c-4 -5 -1 -6 4 -3 6 4 16
0 23 -8 12 -15 11 -16 -10 -19 -5 0 -11 -5 -11 -11 -1 -5 -8 -19 -15 -30 -20
-28 -17 -45 6 -45 13 0 25 12 36 38 10 20 17 40 16 43 -2 10 88 10 108 -1 10
-5 22 -19 25 -30 4 -11 24 -29 46 -40 21 -11 39 -23 39 -25 0 -3 -13 1 -30 10
-38 20 -37 20 -45 -15 -4 -16 -16 -37 -28 -45 -26 -18 -77 -19 -101 -2 -10 7
-33 11 -51 9 -25 -3 -36 -11 -45 -32 -25 -59 -140 -71 -140 -14 0 21 4 24 40
24 22 0 40 5 40 10 0 6 -13 10 -30 10 -44 0 -70 31 -70 84 0 59 36 90 93 83
27 -4 37 -2 37 9 0 8 7 14 15 14 9 0 18 7 21 15 6 14 8 13 19 -2 7 -10 11 -22
8 -27z m-1276 28 c-3 -3 -12 -4 -19 -1 -8 3 -5 6 6 6 11 1 17 -2 13 -5z m-48
-48 c7 -9 11 -41 9 -83 l-3 -68 -104 -3 c-114 -3 -145 8 -157 53 -7 30 -5 30
-55 4 -23 -11 -39 -16 -36 -11 4 4 24 17 47 27 22 10 40 24 40 31 0 7 7 19 15
28 12 12 21 13 38 5 19 -8 22 -17 19 -45 l-4 -34 66 0 66 0 0 43 c0 59 31 87
59 53z m876 -11 c28 -27 30 -37 15 -66 -9 -16 -7 -19 15 -19 18 0 25 5 25 20
0 75 84 116 144 69 25 -19 27 -26 24 -83 l-3 -61 -172 -3 c-104 -1 -173 -6
-173 -12 0 -6 15 -10 34 -10 39 0 50 -11 41 -40 -9 -28 -82 -28 -119 1 -32 25
-33 57 -4 94 15 19 21 39 19 61 -4 47 27 74 84 74 35 0 52 -6 70 -25z m-1235
-110 c0 -2 -10 -9 -22 -15 -22 -11 -22 -10 -4 4 21 17 26 19 26 11z m2020 -31
c0 -2 -9 0 -20 6 -11 6 -20 13 -20 16 0 2 9 0 20 -6 11 -6 20 -13 20 -16z
m-1750 -33 c7 -15 6 -23 -6 -35 -19 -19 -26 -20 -42 -4 -16 16 -15 45 1 51 24
10 36 7 47 -12z m604 -4 c9 -15 7 -21 -8 -32 -35 -26 -74 13 -44 43 16 16 38
12 52 -11z m1232 -18 c3 -6 -5 -3 -20 6 -14 10 -26 19 -26 22 0 7 39 -17 46
-28z m-2236 7 c0 -3 -15 -14 -32 -26 l-33 -22 30 26 c31 27 35 29 35 22z
m2305 -56 c10 -11 16 -20 13 -20 -3 0 -13 9 -23 20 -10 11 -16 20 -13 20 3 0
13 -9 23 -20z m-2375 7 c0 -2 -10 -12 -22 -23 l-23 -19 19 23 c18 21 26 27 26
19z m2430 -52 c13 -14 21 -25 18 -25 -2 0 -15 11 -28 25 -13 14 -21 25 -18 25
2 0 15 -11 28 -25z m-2480 12 c0 -2 -10 -12 -22 -23 l-23 -19 19 23 c18 21 26
27 26 19z m1034 -75 c-13 -20 -25 -20 -38 1 -7 10 -5 21 4 32 12 15 15 15 29
0 12 -12 13 -19 5 -33z m-1084 35 c0 -1 -33 -34 -72 -72 l-73 -70 70 73 c64
67 75 77 75 69z m2650 -82 c47 -47 82 -85 80 -85 -3 0 -43 38 -90 85 -47 47
-82 85 -80 85 3 0 43 -38 90 -85z m-1825 -16 l0 -74 -202 -3 -202 -2 -16 24
c-18 28 -17 57 3 64 8 2 12 -7 12 -26 0 -36 13 -42 86 -42 l54 0 0 50 c0 28 5
50 10 50 6 0 10 -22 10 -50 0 -38 4 -50 15 -50 10 0 15 11 15 35 0 23 6 39 19
47 10 6 17 18 14 25 -3 9 3 13 21 13 27 0 35 -15 14 -23 -8 -3 -6 -6 4 -6 21
-1 38 -31 38 -65 0 -17 6 -26 16 -26 13 0 15 11 13 63 -2 34 2 62 7 62 5 0 10
-28 12 -62 2 -47 7 -63 17 -63 12 0 15 16 15 71 0 52 3 70 13 67 8 -3 12 -28
12 -79z m35 2 c0 -44 -4 -83 -10 -86 -6 -4 -10 25 -10 79 0 51 4 86 10 86 6 0
10 -33 10 -79z m480 9 c0 -63 2 -70 20 -70 17 0 20 7 20 50 0 28 5 50 10 50 6
0 10 -22 10 -50 l0 -50 60 0 c51 0 60 3 60 18 0 30 -23 51 -60 54 -36 3 -45
20 -13 27 10 2 22 10 26 17 10 18 28 8 20 -11 -3 -9 1 -15 11 -15 21 0 36 -31
36 -74 l0 -36 -110 0 -110 0 0 80 c0 47 4 80 10 80 6 0 10 -30 10 -70z m260 5
c0 -37 -4 -65 -10 -65 -6 0 -10 28 -10 65 0 37 4 65 10 65 6 0 10 -28 10 -65z
m50 -15 l0 -80 -45 0 c-25 0 -45 5 -45 10 0 6 16 10 35 10 l35 0 0 70 c0 40 4
70 10 70 6 0 10 -33 10 -80z m38 0 c-4 -107 -22 -108 -26 -2 -2 69 0 82 13 82
13 0 15 -13 13 -80z m332 10 l0 -70 65 0 c36 0 65 3 65 6 0 3 -5 14 -10 25 -8
14 -21 19 -50 19 -22 0 -40 3 -40 8 0 4 16 25 34 47 39 45 61 41 27 -5 l-22
-30 25 0 c33 0 56 -25 56 -61 l0 -29 -85 0 -85 0 0 80 c0 47 4 80 10 80 6 0
10 -30 10 -70z m-1054 33 c-10 -10 -19 5 -10 18 6 11 8 11 12 0 2 -7 1 -15 -2
-18z m854 7 c0 -5 -11 -10 -25 -10 -14 0 -25 5 -25 10 0 6 11 10 25 10 14 0
25 -4 25 -10z m120 -3 c0 -7 9 -18 20 -25 15 -9 20 -23 20 -57 l0 -45 -74 0
-75 0 -3 43 c-3 39 -5 42 -33 42 -27 0 -30 -3 -30 -30 0 -23 5 -31 23 -33 32
-5 27 -24 -5 -20 -17 2 -33 13 -42 29 -13 24 -13 29 2 53 13 19 26 26 50 26
42 0 57 -15 57 -57 0 -23 5 -33 15 -33 11 0 14 7 9 24 -4 19 1 32 20 51 14 14
26 30 26 35 0 6 5 10 10 10 6 0 10 -6 10 -13z m-920 -63 c0 -32 4 -44 15 -44
9 0 15 9 15 23 0 39 22 59 60 55 43 -4 61 -41 41 -84 -11 -26 -14 -26 -71 -20
-54 6 -59 5 -65 -14 -10 -31 -52 -44 -81 -25 -21 13 -24 23 -24 75 0 77 18 79
22 3 3 -54 5 -58 28 -58 24 0 25 3 28 60 1 33 5 66 7 73 10 27 25 0 25 -44z
m290 -10 c0 -31 -5 -64 -10 -74 -14 -26 -47 -42 -70 -35 -30 10 -24 23 13 27
32 3 32 3 35 63 3 70 8 89 22 80 5 -3 10 -31 10 -61z m-1506 -91 c-58 -73 -77
-90 -39 -38 28 40 76 95 82 95 2 0 -18 -26 -43 -57z m2995 -38 c48 -66 32 -55
-24 18 -26 34 -39 54 -28 44 11 -9 34 -37 52 -62z m-2289 55 c0 -5 -7 -10 -15
-10 -8 0 -15 5 -15 10 0 6 7 10 15 10 8 0 15 -4 15 -10z m890 0 c0 -5 -4 -10
-10 -10 -5 0 -10 5 -10 10 0 6 5 10 10 10 6 0 10 -4 10 -10z m-1676 -125 c-9
-14 -18 -25 -21 -25 -5 0 5 18 20 38 17 22 18 13 1 -13z m3166 -65 c6 -11 8
-20 6 -20 -3 0 -10 9 -16 20 -6 11 -8 20 -6 20 3 0 10 -9 16 -20z m-3220 -20
c-6 -11 -13 -20 -16 -20 -2 0 0 9 6 20 6 11 13 20 16 20 2 0 0 -9 -6 -20z
m-99 -207 c-12 -20 -14 -14 -5 12 4 9 9 14 11 11 3 -2 0 -13 -6 -23z m-20 -50
c-12 -20 -14 -14 -5 12 4 9 9 14 11 11 3 -2 0 -13 -6 -23z m-14 -45 c-3 -8 -6
-5 -6 6 -1 11 2 17 5 13 3 -3 4 -12 1 -19z m2113 -260 c0 -79 1 -81 19 -64 47
43 137 40 196 -6 56 -44 80 -149 52 -223 -40 -104 -148 -146 -231 -90 l-36 24
0 -24 c0 -24 -3 -25 -55 -25 l-55 0 0 245 0 245 55 0 55 0 0 -82z m-1942 -126
c-3 -161 -6 -192 -21 -215 -28 -43 -75 -67 -130 -67 -80 0 -143 47 -154 114
l-6 36 57 0 c51 0 57 -2 66 -25 10 -27 38 -33 58 -13 8 8 12 62 12 178 0 92 3
170 7 173 3 4 31 7 60 7 l55 0 -4 -188z m3412 133 c0 -45 0 -45 35 -45 35 0
35 0 35 -45 0 -45 0 -45 -35 -45 l-36 0 3 -87 3 -88 33 -3 c31 -3 32 -4 32
-53 l0 -49 -45 0 c-112 0 -145 43 -145 190 0 73 -3 90 -15 90 -11 0 -15 12
-15 45 0 33 4 45 15 45 11 0 15 12 15 45 l0 45 60 0 60 0 0 -45z m-3087 -66
c27 -20 27 -20 27 1 0 18 6 20 55 20 l55 0 0 -185 0 -185 -55 0 c-52 0 -55 1
-55 25 l0 24 -36 -24 c-164 -111 -332 156 -188 300 57 57 137 67 197 24z m525
5 c52 -34 62 -68 62 -216 l0 -138 -55 0 -55 0 0 115 c0 110 -1 117 -25 140
-13 14 -33 25 -45 25 -11 0 -32 -11 -45 -25 -24 -23 -25 -30 -25 -140 l0 -115
-55 0 -55 0 0 185 0 185 55 0 c50 0 55 -2 55 -22 0 -20 1 -20 19 -4 41 37 120
42 169 10z m409 -1 c55 -26 86 -75 91 -144 6 -76 -1 -101 -40 -145 -40 -46
-83 -64 -148 -64 -105 0 -181 69 -188 170 -11 157 138 253 285 183z m425 -4
c53 -27 88 -91 88 -160 0 -66 -22 -112 -73 -153 -36 -29 -45 -31 -116 -31 -70
0 -81 3 -115 29 -56 43 -76 81 -76 149 0 34 7 74 16 94 44 92 171 125 276 72z
m1061 -1 c47 -34 57 -72 57 -218 l0 -130 -54 0 -54 0 -4 120 c-2 97 -6 123
-20 137 -21 20 -82 23 -100 5 -9 -8 -15 -57 -18 -135 l-5 -122 -57 -3 -58 -3
0 186 0 185 60 0 c55 0 60 -2 60 -22 0 -20 1 -20 18 -5 46 41 120 44 175 5z
m388 6 c56 -29 99 -105 99 -176 l0 -28 -130 0 c-71 0 -130 -4 -130 -8 0 -5 9
-17 20 -27 15 -13 28 -16 57 -10 21 3 66 9 101 12 70 5 75 -1 41 -48 -71 -100
-258 -88 -313 19 -44 86 -23 195 47 251 51 40 146 48 208 15z m-783 -240 c32
-22 30 -78 -3 -100 -49 -32 -106 11 -91 69 5 22 35 45 61 46 6 1 21 -6 33 -15z
m-2606 -219 c17 -45 13 -56 -10 -33 -10 10 -17 10 -32 0 -23 -14 -24 -12 -8
39 6 22 16 39 22 39 7 0 19 -20 28 -45z m68 6 c0 -29 5 -41 18 -44 10 -3 6 -5
-10 -6 -27 -1 -28 1 -28 44 0 25 5 45 10 45 6 0 10 -18 10 -39z m88 -44 c12
-3 11 -5 -5 -6 -21 -1 -23 3 -21 47 l1 47 4 -42 c3 -29 9 -43 21 -46z m155 76
c-8 -2 -13 -22 -13 -44 0 -21 -4 -39 -10 -39 -5 0 -10 18 -10 39 0 29 -5 41
-17 44 -10 3 0 5 22 5 22 0 34 -2 28 -5z m57 -13 c0 -13 7 -20 20 -20 13 0 20
7 20 20 0 11 5 20 10 20 6 0 10 -20 10 -45 0 -25 -4 -45 -10 -45 -5 0 -10 9
-10 20 0 13 -7 20 -20 20 -13 0 -20 -7 -20 -20 0 -11 -4 -20 -10 -20 -5 0 -10
20 -10 45 0 25 5 45 10 45 6 0 10 -9 10 -20z m128 13 c-10 -2 -18 -11 -18 -19
0 -8 8 -15 18 -15 16 -1 16 -2 0 -6 -10 -2 -18 -11 -18 -18 0 -7 8 -16 18 -18
10 -3 6 -5 -10 -6 -27 -1 -28 1 -28 44 0 43 1 45 28 44 16 -1 20 -3 10 -6z
m151 -25 l21 -33 0 33 c0 17 5 32 10 32 6 0 10 -20 10 -45 0 -52 -10 -56 -39
-17 l-20 27 -1 -27 c0 -16 -4 -28 -10 -28 -5 0 -10 20 -10 45 0 53 11 57 39
13z m109 25 c-10 -2 -18 -11 -18 -19 0 -8 8 -15 18 -15 16 -1 16 -2 0 -6 -10
-2 -18 -11 -18 -18 0 -7 8 -16 18 -18 10 -3 6 -5 -10 -6 -27 -1 -28 1 -28 44
0 43 1 45 28 44 16 -1 20 -3 10 -6z m70 -25 l8 -33 12 33 c6 17 15 32 20 32 5
0 13 -15 17 -32 l7 -33 9 33 c5 17 14 32 19 32 12 0 -13 -83 -27 -87 -6 -2
-15 11 -19 29 l-7 33 -10 -33 c-6 -18 -15 -31 -21 -29 -13 4 -38 87 -26 87 5
0 13 -15 18 -32z m188 21 c4 -7 0 -9 -14 -5 -31 10 -37 -13 -7 -24 17 -7 25
-16 23 -27 -4 -22 -36 -29 -52 -13 -8 9 -6 11 12 5 16 -5 22 -2 22 9 0 9 -6
16 -14 16 -19 0 -29 17 -22 35 6 18 42 20 52 4z m137 4 c-27 -5 -31 -32 -5
-34 16 -1 16 -2 0 -6 -10 -2 -18 -13 -18 -24 0 -10 -4 -19 -10 -19 -5 0 -10
20 -10 45 0 44 0 45 33 44 23 -1 26 -3 10 -6z m105 -20 c2 -13 -2 -23 -9 -23
-8 0 -8 -4 1 -15 7 -9 10 -18 6 -22 -3 -4 -13 2 -21 13 -13 17 -14 17 -15 2 0
-10 -4 -18 -10 -18 -5 0 -10 21 -10 46 0 44 1 45 28 42 19 -2 28 -9 30 -25z
m120 15 c28 -28 7 -78 -33 -78 -27 0 -45 18 -45 45 0 27 18 45 45 45 12 0 26
-5 33 -12z m78 -20 l17 -33 15 33 c21 44 32 40 32 -13 0 -45 -19 -66 -21 -22
l0 22 -11 -22 c-6 -13 -14 -23 -18 -23 -4 0 -12 10 -18 23 l-11 22 0 -22 c-2
-44 -21 -23 -21 22 0 53 13 58 36 13z m207 25 c-8 -2 -13 -22 -13 -44 0 -21
-4 -39 -10 -39 -5 0 -10 18 -10 39 0 22 -5 42 -12 44 -7 3 3 5 22 5 19 0 29
-2 23 -5z m78 -33 c12 0 19 7 19 20 0 11 5 20 10 20 6 0 10 -20 10 -45 0 -25
-4 -45 -10 -45 -5 0 -10 9 -10 20 0 29 -37 27 -43 -2 -2 -13 -4 0 -4 27 0 28
2 40 4 28 3 -15 12 -23 24 -23z m112 33 c-27 -5 -31 -32 -5 -34 16 -1 16 -2 0
-6 -26 -6 -22 -31 5 -36 19 -4 18 -4 -5 -6 -27 -1 -28 1 -28 44 0 43 1 45 28
44 23 -2 24 -2 5 -6z m146 -20 l20 -28 1 28 c0 15 5 27 10 27 6 0 10 -20 10
-45 0 -53 -11 -57 -39 -12 l-21 32 0 -32 c0 -18 -4 -33 -10 -33 -5 0 -10 20
-10 45 0 52 10 56 39 18z m114 20 c-27 -5 -31 -32 -5 -34 16 -1 16 -2 0 -6
-26 -6 -22 -31 5 -36 19 -4 18 -4 -5 -6 -27 -1 -28 1 -28 44 0 43 1 45 28 44
23 -2 24 -2 5 -6z m125 -13 c4 -12 2 -13 -9 -2 -19 17 -37 15 -49 -7 -12 -23
12 -54 35 -45 20 8 19 22 -2 27 -11 3 -7 5 10 6 16 1 27 -4 27 -12 0 -33 -53
-50 -78 -25 -16 16 -15 51 0 66 17 17 60 11 66 -8z m80 13 c-10 -2 -18 -11
-18 -19 0 -8 8 -15 18 -15 16 -1 16 -2 0 -6 -10 -2 -18 -11 -18 -18 0 -7 8
-16 18 -18 10 -3 6 -5 -10 -6 -27 -1 -28 1 -28 44 0 43 1 45 28 44 16 -1 20
-3 10 -6z m77 -34 l12 -34 12 38 c7 20 16 37 21 37 5 0 2 -20 -8 -45 -9 -25
-21 -45 -27 -45 -5 0 -18 20 -27 45 -9 28 -12 45 -5 42 6 -2 16 -19 22 -38z"/>
<path d="M1964 2055 c-7 -18 3 -35 22 -35 8 0 14 10 14 25 0 27 -27 35 -36 10z"/>
<path d="M3054 2055 c-7 -18 3 -35 22 -35 8 0 14 10 14 25 0 27 -27 35 -36 10z"/>
<path d="M3276 2042 c-8 -24 3 -54 18 -49 15 5 14 59 -1 64 -6 2 -14 -5 -17
-15z"/>
<path d="M2643 2064 c-3 -8 2 -23 11 -32 16 -16 18 -16 31 2 11 14 12 23 4 33
-15 18 -38 16 -46 -3z"/>
<path d="M2860 2046 c0 -20 5 -26 21 -26 15 0 20 5 17 22 -5 34 -38 37 -38 4z"/>
<path d="M1835 1689 c-4 -5 -4 -21 -1 -35 5 -19 13 -24 36 -24 25 0 30 4 30
23 0 13 -5 28 -12 35 -15 15 -45 16 -53 1z"/>
<path d="M3104 1686 c-11 -29 1 -51 29 -54 27 -3 28 -1 25 30 -2 25 -8 34 -26
36 -13 2 -24 -3 -28 -12z"/>
<path d="M2275 1671 c-9 -28 5 -51 30 -51 25 0 39 23 30 51 -4 12 -16 19 -30
19 -14 0 -26 -7 -30 -19z"/>
<path d="M2900 677 c-39 -20 -55 -62 -41 -108 28 -92 151 -73 151 23 0 50 -8
66 -41 83 -34 18 -37 18 -69 2z"/>
<path d="M1145 678 c-32 -19 -44 -40 -45 -79 0 -76 74 -116 131 -70 32 26 34
101 4 130 -26 26 -65 34 -90 19z"/>
<path d="M2027 670 c-31 -25 -41 -62 -27 -106 13 -39 35 -54 78 -54 77 0 98
136 26 169 -35 15 -48 14 -77 -9z"/>
<path d="M2453 678 c-45 -22 -55 -107 -16 -150 10 -11 30 -18 53 -18 50 0 73
27 74 86 1 38 -4 50 -27 70 -30 26 -50 29 -84 12z"/>
<path d="M3902 663 l-27 -28 38 -3 c20 -2 54 -2 75 0 l37 3 -27 28 c-15 15
-36 27 -48 27 -11 0 -33 -12 -48 -27z"/>
<path d="M616 305 c-3 -9 0 -15 9 -15 9 0 12 6 9 15 -4 8 -7 15 -9 15 -2 0 -5
-7 -9 -15z"/>
<path d="M1870 325 c0 -9 5 -15 11 -13 6 2 11 8 11 13 0 5 -5 11 -11 13 -6 2
-11 -4 -11 -13z"/>
<path d="M1971 321 c-8 -15 -7 -23 4 -35 22 -22 47 -9 43 23 -4 32 -33 40 -47
12z"/>
</g>
</svg>
