<svg id="phone" xmlns="http://www.w3.org/2000/svg" width="25.225" height="25.488" viewBox="0 0 25.225 25.488">
  <g id="Group_510" data-name="Group 510" transform="translate(0)">
    <g id="Group_509" data-name="Group 509" transform="translate(0)">
      <g id="Group_508" data-name="Group 508">
        <path id="Path_263" data-name="Path 263" d="M128.546,83.909l-3.9-3.946a2.013,2.013,0,0,0-2.864.055L119.824,82l-.387-.218a19.534,19.534,0,0,1-4.721-3.458,19.887,19.887,0,0,1-3.421-4.789c-.073-.133-.142-.261-.211-.383l1.317-1.332.648-.657a2.074,2.074,0,0,0,.052-2.9l-3.9-3.946a2.011,2.011,0,0,0-2.864.055l-1.1,1.118.03.03a6.453,6.453,0,0,0-.9,1.616,6.772,6.772,0,0,0-.4,1.639c-.514,4.319,1.434,8.266,6.723,13.622,7.31,7.4,13.2,6.844,13.456,6.816a6.514,6.514,0,0,0,1.623-.413,6.306,6.306,0,0,0,1.59-.912l.024.022,1.112-1.1A2.078,2.078,0,0,0,128.546,83.909Z" transform="translate(-103.887 -63.748)" fill="#3432ff"/>
      </g>
    </g>
  </g>
</svg>
