<svg xmlns="http://www.w3.org/2000/svg" width="25.435" height="25.435" viewBox="0 0 25.435 25.435">
  <path id="Path_27650" data-name="Path 27650" d="M3024.675,110.61c-.029.039-.055.077-.084.114-.288.357-.547.736-.82,1.1a2.289,2.289,0,0,0-.175,2.465c.012.027.026.054.038.081a2.2,2.2,0,0,0,1.736,1.379c.458.074.915.161,1.377.2.116.011.164.047.181.164a13.188,13.188,0,0,1,0,3.829c-.016.106-.057.146-.168.157a9.339,9.339,0,0,0-1.876.344,1.645,1.645,0,0,0-.813.553,3.388,3.388,0,0,0-.752,1.878,1.571,1.571,0,0,0,.179.862,8.757,8.757,0,0,0,1.081,1.573.187.187,0,0,1,0,.283,13.075,13.075,0,0,1-2.686,2.679.158.158,0,0,1-.239-.005c-.366-.306-.761-.572-1.148-.851a2.205,2.205,0,0,0-2.221-.223c-.089.034-.176.072-.263.112a2.2,2.2,0,0,0-1.387,1.729c-.076.464-.164.927-.208,1.4-.011.119-.054.16-.168.176a13.222,13.222,0,0,1-3.812,0c-.113-.016-.157-.054-.17-.174a8.53,8.53,0,0,0-.382-1.977,1.481,1.481,0,0,0-.437-.641,3.345,3.345,0,0,0-1.977-.821,1.541,1.541,0,0,0-.828.174,8.932,8.932,0,0,0-1.6,1.1.159.159,0,0,1-.239.008,13.06,13.06,0,0,1-2.708-2.708.159.159,0,0,1,.01-.239c.293-.353.548-.735.822-1.1a2.284,2.284,0,0,0,.181-2.433c-.016-.038-.036-.075-.053-.113a2.194,2.194,0,0,0-1.723-1.368c-.458-.076-.915-.163-1.377-.205-.125-.011-.173-.05-.191-.174a13.256,13.256,0,0,1,0-3.811c.017-.115.061-.156.179-.167.457-.042.907-.131,1.36-.2a2.255,2.255,0,0,0,1.808-1.494,3.587,3.587,0,0,0,.252-.928,1.69,1.69,0,0,0-.184-1.054,9.438,9.438,0,0,0-1.068-1.539.178.178,0,0,1,0-.268,13.012,13.012,0,0,1,2.684-2.681.167.167,0,0,1,.253,0,13.246,13.246,0,0,0,1.3.942,2.025,2.025,0,0,0,1.728.231,3.555,3.555,0,0,0,1.31-.669,1.622,1.622,0,0,0,.532-.786,9.088,9.088,0,0,0,.347-1.876c.013-.128.059-.169.179-.186a13.179,13.179,0,0,1,3.794,0c.118.017.168.054.181.184a10.124,10.124,0,0,0,.312,1.775,1.793,1.793,0,0,0,.691.989,3.519,3.519,0,0,0,1.64.656,1.748,1.748,0,0,0,1.115-.232,10.176,10.176,0,0,0,1.474-1.037.15.15,0,0,1,.224-.007,12.86,12.86,0,0,1,2.718,2.722C3024.624,110.536,3024.647,110.571,3024.675,110.61Zm-10.335,14.553a7.131,7.131,0,1,0-7.122-7.136A7.131,7.131,0,0,0,3014.34,125.163Z" transform="translate(-3001.632 -105.315)" fill="#e1e1e1"/>
</svg>
